<?xml version="1.0" standalone="no"?>
<!DOCTYPE svg PUBLIC "-//W3C//DTD SVG 20010904//EN"
 "http://www.w3.org/TR/2001/REC-SVG-20010904/DTD/svg10.dtd">
<svg version="1.0" xmlns="http://www.w3.org/2000/svg"
 width="278.000000pt" height="150.000000pt" viewBox="0 0 278.000000 150.000000"
 preserveAspectRatio="xMidYMid meet">

<g transform="translate(0.000000,150.000000) scale(0.100000,-0.100000)"
fill="#000000" stroke="none">
<path d="M82 1450 c-33 -21 -72 -74 -72 -100 0 -8 24 -47 53 -85 102 -136 169
-295 207 -490 19 -103 40 -311 40 -414 0 -31 4 -62 9 -70 14 -22 57 -5 107 41
36 33 48 54 65 112 90 304 127 399 199 509 92 142 216 232 355 259 33 6 72 20
87 30 43 30 90 104 86 136 -3 24 -7 27 -38 24 -104 -8 -256 -69 -364 -146
-116 -83 -225 -216 -310 -378 -36 -70 -47 -83 -50 -65 -3 12 -12 59 -21 104
-38 202 -125 383 -243 511 -44 47 -62 51 -110 22z"/>
<path d="M1354 1141 c-78 -48 -105 -151 -40 -151 54 0 140 90 134 140 -2 20
-9 26 -33 28 -17 1 -44 -6 -61 -17z"/>
<path d="M2625 928 c-31 -29 -36 -43 -49 -118 -8 -47 -20 -149 -27 -227 l-13
-141 -29 -6 c-44 -9 -103 11 -128 42 -23 29 -23 34 -3 329 5 77 4 97 -10 118
-21 32 -32 32 -66 -4 -30 -33 -55 -112 -65 -206 -11 -113 -17 -145 -26 -140
-13 8 -76 -21 -119 -55 -22 -17 -69 -68 -106 -113 -103 -125 -97 -122 -89 -47
6 52 14 75 42 113 111 152 103 369 -16 440 -70 41 -175 4 -275 -95 -81 -81
-109 -149 -110 -263 -1 -69 3 -86 26 -125 37 -65 93 -94 167 -88 l58 4 -13
-50 c-19 -70 -38 -240 -30 -261 5 -13 13 -15 33 -10 47 11 79 42 159 153 44
60 122 155 175 210 l96 101 6 -50 c13 -110 79 -159 213 -159 43 1 97 7 119 15
34 12 41 12 56 -1 31 -28 86 1 133 71 34 50 33 64 -11 102 l-38 31 3 199 c3
201 -1 263 -19 263 -5 0 -25 -15 -44 -32z m-836 -183 c43 -60 61 -106 61 -155
0 -97 -64 -131 -133 -70 -34 30 -57 85 -57 136 1 59 48 133 86 134 6 0 25 -20
43 -45z"/>
<path d="M1348 884 c-20 -15 -43 -40 -51 -58 -23 -48 -87 -336 -87 -390 0
-117 81 -176 183 -132 37 16 92 71 101 103 16 53 -37 81 -89 47 -23 -15 -25
-15 -32 2 -14 35 -6 148 22 287 34 176 28 195 -47 141z"/>
<path d="M970 880 c-8 -6 -32 -7 -53 -4 -59 9 -122 -13 -178 -64 -58 -52 -94
-110 -120 -193 -96 -310 180 -463 420 -234 84 80 123 159 129 257 4 69 2 84
-23 134 -42 86 -126 136 -175 104z m-56 -179 c102 -76 116 -209 26 -256 -38
-20 -68 -19 -109 3 -48 26 -71 73 -71 149 0 142 53 178 154 104z"/>
</g>
</svg>
