<svg width="180" height="180" viewBox="0 0 180 180" fill="none" xmlns="http://www.w3.org/2000/svg">
<rect width="180" height="180" fill="#1E1E1E"/>
<rect width="180" height="180" fill="black"/>
<path d="M26.5811 22.1788C22.6481 24.6736 18 30.9699 18 34.0586C18 35.009 20.8604 39.6421 24.3166 44.1565C36.4732 60.3131 44.4583 79.202 48.9873 102.368C51.2517 114.604 53.7545 139.314 53.7545 151.55C53.7545 155.233 54.2312 158.916 54.8272 159.866C56.4957 162.48 61.6205 160.46 67.5796 154.995C71.8701 151.075 73.3003 148.58 75.3264 141.69C86.0528 105.575 90.4625 94.2894 99.0436 81.2216C110.008 64.3522 124.787 53.6603 141.353 50.4528C145.286 49.74 149.934 48.0768 151.722 46.8888C156.847 43.3249 162.448 34.5338 161.972 30.7323C161.614 27.8811 161.137 27.5247 157.443 27.8811C145.048 28.8315 126.932 36.0782 114.06 45.2257C100.235 55.0859 87.2446 70.8861 77.1141 90.1314C72.8236 98.4473 71.5126 99.9917 71.1551 97.8533C70.7975 96.4277 69.7249 90.8442 68.6522 85.4983C64.1233 61.501 53.7545 39.9985 39.6911 24.7924C34.4471 19.2088 32.3018 18.7337 26.5811 22.1788Z" fill="white"/>
</svg>
