<?xml version="1.0" encoding="UTF-8"?>
<!-- Generated by Pixelmator Pro 2.4.2 -->
<svg width="909" height="208" viewBox="0 0 909 208" xmlns="http://www.w3.org/2000/svg" xmlns:xlink="http://www.w3.org/1999/xlink">
    <g id="Group">
        <path id="Path" fill="#ffffff" stroke="none" d="M 44.266666 1.46666 C 24.4 4 10.4 15.066666 3.333333 34 C 0.933333 40.133331 0.666667 45.866669 0.266667 99.199997 C -0 137.466675 0.4 160.933334 1.333333 167.066666 C 5.466667 193.733337 20.4 207.333328 45.333332 207.199997 C 57.200001 207.199997 67.599998 203.333328 72.666664 196.800003 L 76 192.666672 L 76 198.933334 L 76 205.333328 L 92 205.333328 L 108.133331 205.333328 L 107.73333 122.26667 L 107.333336 39.333328 L 103.866669 31.066666 C 102 26.666672 98.933334 21.199997 97.199997 19.066666 C 85.866669 5.199997 66.133331 -1.333328 44.266666 1.46666 Z M 64.933334 34.666672 C 74.133331 40.133331 74 39.46666 74 104 C 74 160.133331 73.866669 162.133331 71.199997 166.666672 C 66.933334 174.133331 60.533333 177.733337 52.933334 176.933334 C 45.066666 176.266663 40.266666 172.933334 36.666668 165.866669 C 34.133335 160.933334 34 158 34 104 C 34 47.733337 34 47.333328 37.066666 41.733337 C 38.666668 38.666672 41.599998 35.199997 43.733334 34.133331 C 48.933334 31.199997 59.733334 31.46666 64.933334 34.666672 Z"/>
        <path id="path1" fill="#ffffff" stroke="none" d="M 169.733337 1.46666 C 151.600006 3.733337 137.600006 14.933334 131.733337 31.733337 L 128.666672 40.666672 L 128.666672 122.666664 L 128.666672 204.666672 L 144.933334 205.066666 L 161.199997 205.46666 L 161.600006 125.73333 C 162 54.666672 162.266663 45.46666 164.266663 41.066666 C 167.066666 34.800003 172.399994 31.333328 179.46666 31.333328 C 186.399994 31.333328 190.800003 33.733337 194.133331 39.066666 C 196.53334 43.066666 196.666672 47.46666 197.333328 124 L 198 204.666672 L 214.399994 205.066666 L 230.666672 205.46666 L 230.666672 123.466667 C 230.666672 45.066666 230.53334 41.199997 228 32.933334 C 220.800003 9.733337 198.53334 -2.399994 169.733337 1.46666 Z"/>
        <path id="path2" fill="#ffffff" stroke="none" d="M 291.333344 1.46666 C 279.733337 3.199997 267.600006 9.46666 262 16.933334 C 254 27.46666 251.46666 35.866669 251.46666 53.333328 C 251.46666 80 256 87.066666 294.133331 117.466667 C 319.200012 137.466675 321.333344 140.399994 321.333344 153.600006 C 321.333344 168.399994 313.866669 177.333328 301.466675 177.333328 C 288.133331 177.333328 281.466675 168.266663 281.333344 150.266663 L 281.333344 140 L 264 140 L 246.666672 140 L 246.666672 147.600006 C 246.666672 174.800003 257.200012 194.933334 275.600006 202.800003 C 299.066681 212.800003 329.466675 207.066666 343.600006 189.733337 C 357.733337 172.266663 358.666656 140 345.466675 120.933334 C 340.799988 114.133331 334.266663 108.133331 308.133331 87.066666 C 298.266663 79.199997 288.933319 70.933334 287.466675 68.933334 C 283.466675 63.46666 282.799988 48.933334 286.399994 40.933334 C 293.200012 25.600006 312.533325 28.133331 317.200012 44.933334 C 318 47.733337 318.666656 54.399994 318.666656 59.600006 L 318.666656 69.333328 L 335.466675 69.333328 L 352.266663 69.333328 L 351.733337 53.600006 C 351.200012 41.600006 350.399994 36.133331 348 30.133331 C 344.533325 21.199997 335.466675 10.399994 328 6.666672 C 318.266663 1.733337 304 -0.399994 291.333344 1.46666 Z"/>
        <path id="path3" fill="#ffffff" stroke="none" d="M 608.533325 1.333328 C 584.533325 4.800003 570.266663 17.600006 565.333313 40 C 564.266663 45.199997 563.866638 64.666672 564.266663 108.666664 C 564.666687 169.066666 564.666687 170.133331 567.733337 177.600006 C 576.400024 198.933334 600.93335 211.066666 627.466675 206.933334 C 640.666687 204.800003 647.733337 201.600006 656 193.866669 C 666.799988 183.733337 672 169.333328 672 149.066666 L 672 140 L 655.466675 140 L 639.06665 140 L 638.400024 151.066666 C 637.466675 168 631.733337 175.866669 619.06665 176.933334 C 605.466675 178.133331 598 169.333328 598 152 C 598 143.733337 598.533325 141.333344 601.06665 137.733337 C 602.799988 135.333344 614.133362 126.26667 626.400024 117.599998 C 663.333313 91.333336 670.93335 80.800003 671.200012 56 C 671.466675 34.399994 664.666687 19.333328 650.133362 9.600006 C 639.599976 2.666672 622.93335 -0.800003 608.533325 1.333328 Z M 629.06665 34.666672 C 639.333313 40.933334 641.866638 60.399994 633.599976 70.53334 C 631.466675 73.199997 622.400024 80.533333 613.466675 86.933334 L 597.333313 98.666664 L 597.333313 74.933334 C 597.333313 48.266663 598.400024 42.666672 604.666687 36.399994 C 608.666687 32.399994 609.866638 32 616.93335 32 C 622.400024 32 626 32.800003 629.06665 34.666672 Z"/>
        <path id="path4" fill="#ffffff" stroke="none" d="M 732.533325 1.333328 C 708.533325 4.800003 694.266663 17.600006 689.333313 40 C 688.266663 45.333328 687.866638 64.933334 688.266663 110 C 688.666687 172.399994 688.666687 172.666672 691.866638 180.533325 C 695.466675 189.466675 703.599976 199.066666 710.666687 202.666672 C 716 205.333328 727.466675 208 733.866638 208 C 741.466675 208 752 204 757.333313 199.199997 L 762.533325 194.53334 L 762.93335 199.600006 L 763.333313 204.666672 L 779.333313 204.666672 L 795.333313 204.666672 L 795.733337 129.333344 C 796.133362 49.600006 795.599976 40.53334 790.133362 28.53334 C 780.93335 8.399994 758.133362 -2.399994 732.533325 1.333328 Z M 752.133362 34.266663 C 754.266663 35.600006 757.200012 39.066666 758.666687 42 C 761.200012 47.199997 761.333313 50.399994 761.333313 104.800003 C 761.333313 161.600006 761.333313 162 758.266663 167.333328 C 750.799988 180.533325 731.733337 180.533325 724.799988 167.199997 C 722.133362 162.133331 722 159.866669 722 104 C 722 39.46666 721.866638 40.133331 731.06665 34.666672 C 736.533325 31.333328 746.799988 31.199997 752.133362 34.266663 Z"/>
        <path id="path5" fill="#ffffff" stroke="none" d="M 867.333313 1.333328 C 839.866638 4.266663 824 17.733337 818 42.933334 C 816.400024 49.866669 816 65.066666 816 128.399994 L 816 205.46666 L 832.400024 205.066666 L 848.666687 204.666672 L 849.333313 129.333344 C 849.866638 72.399994 850.400024 53.066666 851.733337 50.133331 C 857.06665 38.133331 866.93335 32 881.06665 32 L 889.333313 32 L 889.333313 16.800003 L 889.333313 1.600006 L 885.200012 0.800003 C 880.666687 -0.133331 880.799988 -0.133331 867.333313 1.333328 Z"/>
        <path id="path6" fill="#ffffff" stroke="none" d="M 370.933319 86.26667 L 371.466675 168.666672 L 374.533325 177.333328 C 376.933319 183.600006 379.733337 187.866669 385.200012 193.46666 C 395.333344 203.733337 404.133331 207.066666 421.333344 207.199997 C 432.533325 207.333328 434.799988 206.933334 441.333344 203.733337 C 445.333344 201.733337 450.666656 198 453.200012 195.46666 L 457.600006 190.933334 L 462.133331 196 C 469.466675 204.133331 478.266663 207.333328 493.333344 207.199997 C 510.666656 207.066666 519.333313 203.733337 529.599976 193.333328 C 535.599976 187.199997 537.733337 183.733337 540.266663 176.533325 C 543.333313 167.333328 543.333313 166.933334 543.733337 85.599998 L 544.133362 4 L 526.666687 4 L 509.333344 4 L 509.333344 83.333336 C 509.333344 170.933334 509.466675 169.466675 501.066681 174.666672 C 495.466675 178 488.533325 178 482.933319 174.666672 C 474.533325 169.466675 474.666656 170.933334 474.666656 83.333336 L 474.666656 4 L 457.333344 4 L 440 4 L 440 82.933334 C 440 157.733337 439.866669 162.266663 437.466675 167.600006 C 434.133331 174.666672 428.399994 177.866669 420.399994 176.933334 C 413.733337 176.266663 409.866669 173.333328 406.799988 166.666672 C 404.933319 162.533325 404.666656 152.266663 404.266663 82.933334 L 403.866669 4 L 387.200012 4 L 370.533325 4 L 370.933319 86.26667 Z"/>
        <path id="path7" fill="#ffffff" stroke="none" d="M 880.266663 170.266663 C 873.333313 173.600006 870 179.466675 870 188 C 870 197.333328 873.733337 202.933334 882 206 C 889.599976 208.933334 895.866638 207.866669 902 202.53334 C 918.93335 187.600006 900.533325 160.266663 880.266663 170.266663 Z"/>
    </g>
</svg>
