<?xml version="1.0" encoding="UTF-8"?>
<svg id="Layer_1" xmlns="http://www.w3.org/2000/svg" version="1.1" viewBox="320 840 1340 330" width="180" height="44">
  <!-- Generator: Adobe Illustrator 30.1.0, SVG Export Plug-In . SVG Version: 2.1.1 Build 136)  -->
  <defs>
    <style>
      .st0 {
        fill: #02f8a2;
      }

      .st1 {
        fill: #fff;
      }
    </style>
  </defs>
  <g id="logo">
    <g id="icon">
      <path class="st1" d="M436.54,1136.08c-8.45,0-15.33-6.88-15.33-15.33v-79.3c0-8.47-6.86-15.33-15.33-15.33h-53.35c-8.45,0-15.33-6.88-15.33-15.33v-63.57c0-8.45,6.88-15.33,15.33-15.33h53.35c8.47,0,15.33-6.86,15.33-15.33v-37.3c0-8.45,6.88-15.33,15.33-15.33h47.52c8.45,0,15.33,6.88,15.33,15.33v47.52c0,8.45-6.88,15.33-15.33,15.33h-37.3c-8.47,0-15.33,6.86-15.33,15.33v43.12c0,8.47,6.86,15.33,15.33,15.33h69.08c8.47,0,15.33-6.86,15.33-15.33v-105.26c0-8.45,6.88-15.33,15.33-15.33h115.48c8.45,0,15.33,6.88,15.33,15.33v115.48c0,8.45-6.88,15.33-15.33,15.33h-105.26c-8.47,0-15.33,6.86-15.33,15.33v79.3c0,8.45-6.88,15.33-15.33,15.33h-89.52Z"/>
    </g>
    <g id="text">
      <path class="st1" d="M743.73,956.01v88.53c0,6.57,5.33,11.9,11.9,11.9h70.34c3.68,0,8.59-3.93,10.8-7.12v16.64c0,3.28-2.66,5.95-5.95,5.95h-74.55c-3.27,0-5.93,2.64-5.95,5.91-.02,5.18-.05,12.67-.05,17.86,0,3.28,2.67,5.93,5.95,5.93h91.12c13.14,0,23.79-10.65,23.79-23.79v-125.31c0-11.21-9.08-20.29-20.29-20.29h-83.33c-13.14,0-23.79,10.65-23.79,23.79ZM826.62,1026.49h-38.39c-5.6,0-10.14-4.54-10.14-10.14v-44.03c0-5.6,4.54-10.14,10.14-10.14h38.39c5.6,0,10.14,4.54,10.14,10.14v44.03c0,5.6-4.54,10.14-10.14,10.14Z"/>
      <path class="st1" d="M990.49,932.22h-73.43c-13.14,0-23.79,10.65-23.79,23.79v76.64c0,13.14,10.65,23.79,23.79,23.79h93.45c3.28,0,5.94-2.66,5.94-5.94v-18.06c0-3.28-2.66-5.95-5.94-5.95-16.14,0-60.63,0-76.92,0-3.28,0-5.95-2.66-5.95-5.95v-7.26c0-3.28,2.66-5.95,5.95-5.95h53.05s9.02,0,9.02,0c13.14,0,23.79-10.65,23.79-23.79v-27.54c0-13.14-10.65-23.79-23.79-23.79h-5.18ZM979.38,982.55h-45.8c-3.28,0-5.95-2.66-5.95-5.95v-8.48c0-3.28,2.66-5.95,5.95-5.95h45.8c3.28,0,5.95,2.66,5.95,5.95v8.48c0,3.28-2.66,5.95-5.95,5.95Z"/>
      <path class="st1" d="M1139.05,932.22h-73.68c-13.13,0-23.78,10.65-23.78,23.78v94.49c0,3.28,2.66,5.95,5.95,5.95h22.47c3.28,0,5.95-2.66,5.95-5.95v-76.43c0-6.57,5.32-11.89,11.89-11.89h33.91c6.57,0,11.89,5.32,11.89,11.89v76.43c0,3.28,2.66,5.95,5.95,5.95h22.47c3.28,0,5.95-2.66,5.95-5.95v-94.49c0-13.13-10.65-23.78-23.78-23.78h-5.18Z"/>
      <path class="st1" d="M1287.35,932.22h-73.43c-13.14,0-23.79,10.65-23.79,23.79v76.64c0,13.14,10.65,23.79,23.79,23.79h93.45c3.28,0,5.94-2.66,5.94-5.94v-18.06c0-3.28-2.66-5.95-5.94-5.95-16.14,0-60.63,0-76.92,0-3.28,0-5.95-2.66-5.95-5.95v-7.26c0-3.28,2.66-5.95,5.95-5.95h53.05s9.02,0,9.02,0c13.14,0,23.79-10.65,23.79-23.79v-27.54c0-13.14-10.65-23.79-23.79-23.79h-5.18ZM1276.25,982.55h-45.8c-3.28,0-5.95-2.66-5.95-5.95v-8.48c0-3.28,2.66-5.95,5.95-5.95h45.8c3.28,0,5.95,2.66,5.95,5.95v8.48c0,3.28-2.66,5.95-5.95,5.95Z"/>
      <path class="st1" d="M1456.26,953.92c.11-.11.07-9.34.04-15.7-.02-3.27-2.67-5.9-5.94-5.9h-105.98c-3.29,0-5.95,2.66-5.95,5.95v18.06c0,3.28,2.66,5.94,5.94,5.94h65.25l-65.79,62.85c-1.96,1.96-5.4,5.65-5.4,8.84v16.64c0,3.28,2.66,5.94,5.94,5.94h105.94c3.29,0,5.95-2.66,5.95-5.95v-18.05c0-3.29-2.66-5.95-5.95-5.95h-65s65.05-62.6,65.05-62.6c3.19-3.19,5.89-6.87,5.89-10.07Z"/>
      <g>
        <path class="st1" d="M1506.88,932.26h-22.48c-3.29,0-5.95,2.66-5.95,5.95v112.33c0,3.27,2.67,5.94,5.94,5.94h22.48c3.27,0,5.94-2.67,5.94-5.94v-112.33c0-3.27-2.67-5.94-5.94-5.94Z"/>
        <path class="st0" d="M1484.29,890.92h22.48c3.28,0,5.94,2.66,5.94,5.94v18.55c0,3.28-2.66,5.94-5.94,5.94h-22.48c-3.28,0-5.94-2.66-5.94-5.94v-18.55c0-3.28,2.66-5.94,5.94-5.94Z"/>
      </g>
      <path class="st1" d="M1534.9,956.1v76.65c0,13.14,10.65,23.78,23.78,23.78h80.33c13.14,0,23.78-10.65,23.78-23.78v-76.65c0-13.14-10.65-23.78-23.78-23.78h-80.33c-13.14,0-23.78,10.65-23.78,23.78ZM1616.54,1026.59h-35.37c-6.57,0-11.9-5.33-11.9-11.9v-40.53c0-6.57,5.33-11.9,11.9-11.9h35.37c6.57,0,11.9,5.33,11.9,11.9v40.53c0,6.57-5.33,11.9-11.9,11.9Z"/>
    </g>
  </g>
</svg>