<?xml version="1.0" encoding="UTF-8"?>
<svg version="1.1" xmlns="http://www.w3.org/2000/svg" width="329" height="113">
<path d="M0 0 C12.54 0 25.08 0 38 0 C38 5.61 38 11.22 38 17 C43.28 17 48.56 17 54 17 C54 24.59 54 32.18 54 40 C48.72 40 43.44 40 38 40 C38 45.28 38 50.56 38 56 C33.64707666 57.45097445 29.88478459 58.49477278 25.4296875 59.2890625 C24.20378906 59.50820312 22.97789062 59.72734375 21.71484375 59.953125 C20.44769531 60.17484375 19.18054688 60.3965625 17.875 60.625 C16.60011719 60.85445312 15.32523438 61.08390625 14.01171875 61.3203125 C4.523484 63 4.523484 63 0 63 C0 55.74 0 48.48 0 41 C-3.3 40.34 -6.6 39.68 -10 39 C-9.99476318 39.7520874 -9.98952637 40.5041748 -9.98413086 41.27905273 C-9.96342773 44.66519342 -9.95036123 48.05132084 -9.9375 51.4375 C-9.92912109 52.62150391 -9.92074219 53.80550781 -9.91210938 55.02539062 C-9.90888672 56.15009766 -9.90566406 57.27480469 -9.90234375 58.43359375 C-9.89710693 59.47572021 -9.89187012 60.51784668 -9.88647461 61.59155273 C-10 64 -10 64 -11 65 C-13.28955344 65.30125205 -15.58732218 65.54040412 -17.88671875 65.75390625 C-18.5813472 65.81907944 -19.27597565 65.88425262 -19.99165344 65.95140076 C-21.46681222 66.08880531 -22.94217834 66.22399875 -24.41772461 66.35717773 C-26.66118836 66.56011987 -28.90383566 66.77068342 -31.14648438 66.98242188 C-37.12405034 67.53516448 -42.98715663 68 -49 68 C-49.33 59.09 -49.66 50.18 -50 41 C-51.65 40.67 -53.3 40.34 -55 40 C-55 49.24 -55 58.48 -55 68 C-59.4474442 68.88948884 -63.43735544 69.12992534 -67.92578125 69.09765625 C-69.04716743 69.09553383 -69.04716743 69.09553383 -70.19120789 69.09336853 C-72.56501365 69.08779764 -74.93872303 69.0752506 -77.3125 69.0625 C-78.92773301 69.05748123 -80.5429675 69.05291899 -82.15820312 69.04882812 C-86.10553522 69.03869117 -90.05266047 69.0191103 -94 69 C-94 59.43 -94 49.86 -94 40 C-95.98 40 -97.96 40 -100 40 C-100 57.16 -100 74.32 -100 92 C-113.86 92 -127.72 92 -142 92 C-142 84.08 -142 76.16 -142 68 C-140.68 68 -139.36 68 -138 68 C-138 59.09 -138 50.18 -138 41 C-139.32 40.67 -140.64 40.34 -142 40 C-142 32.08 -142 24.16 -142 16 C-129.13 16 -116.26 16 -103 16 C-103 17.65 -103 19.3 -103 21 C-102.32453125 20.65066406 -101.6490625 20.30132812 -100.953125 19.94140625 C-100.06109375 19.48636719 -99.1690625 19.03132813 -98.25 18.5625 C-97.36828125 18.11003906 -96.4865625 17.65757813 -95.578125 17.19140625 C-87.6964256 13.54910577 -75.34625691 13.37193807 -67.125 16.3125 C-64.46272363 17.75012924 -63.00852952 18.85315857 -61 21 C-58.54524861 20.03547821 -56.12286024 19.05814112 -53.73828125 17.9296875 C-44.5118583 13.91819926 -33.46561904 13.09697099 -23.76171875 15.953125 C-19.15776644 18.10845675 -15.61299239 20.536138 -13 25 C-12.01 27.97 -12.01 27.97 -11 31 C-10.67 26.38 -10.34 21.76 -10 17 C-6.7 17 -3.4 17 0 17 C0 11.39 0 5.78 0 0 Z " fill="#FFFFFF" transform="translate(142,20)"/>
<path d="M0 0 C14.19 0 28.38 0 43 0 C43 8.25 43 16.5 43 25 C45.97 24.01 48.94 23.02 52 22 C54.88598633 21.64355469 54.88598633 21.64355469 57.33203125 21.671875 C58.23244141 21.67703125 59.13285156 21.6821875 60.06054688 21.6875 C60.96869141 21.708125 61.87683594 21.72875 62.8125 21.75 C64.2037207 21.75773437 64.2037207 21.75773437 65.62304688 21.765625 C69.59143203 21.81140306 73.16503363 21.90601788 77 23 C75.49035263 27.41749164 72.05925205 29.34049953 68.3125 31.75 C67.63896484 32.18755615 66.96542969 32.6251123 66.27148438 33.07592773 C49.80369672 43.62152754 24.02423771 59 4 59 C4 47.12 4 35.24 4 23 C2.68 23 1.36 23 0 23 C0 15.41 0 7.82 0 0 Z " fill="#FFFFFF" transform="translate(193,13)"/>
<path d="M0 0 C1.25282725 3.75848174 1.12381835 7.25490919 1.09765625 11.16796875 C1.0962413 11.96278152 1.09482635 12.7575943 1.09336853 13.57649231 C1.08777378 16.11353325 1.07522228 18.65048575 1.0625 21.1875 C1.05748432 22.90820185 1.05292153 24.62890508 1.04882812 26.34960938 C1.03780607 30.5664403 1.02054506 34.78320516 1 39 C2.32 39 3.64 39 5 39 C5 46.92 5 54.84 5 63 C-8.86 63 -22.72 63 -37 63 C-37 47.82 -37 32.64 -37 17 C-32.71 15.02 -28.42 13.04 -24 11 C-21.1565893 9.61939838 -18.32296706 8.23262526 -15.5 6.8125 C-14.83742188 6.48314453 -14.17484375 6.15378906 -13.4921875 5.81445312 C-10.65820346 4.39463841 -7.9079268 2.94245425 -5.21875 1.26171875 C-3 0 -3 0 0 0 Z " fill="#FFFFFF" transform="translate(282,49)"/>
<path d="M0 0 C0 13.86 0 27.72 0 42 C-14.19 42 -28.38 42 -43 42 C-43.0928125 36.616875 -43.0928125 36.616875 -43.1875 31.125 C-43.21481201 29.99465332 -43.24212402 28.86430664 -43.27026367 27.69970703 C-43.27775635 26.81138184 -43.28524902 25.92305664 -43.29296875 25.0078125 C-43.31653442 23.64100342 -43.31653442 23.64100342 -43.34057617 22.24658203 C-43.22818604 21.50520996 -43.1157959 20.76383789 -43 20 C-42.01 19.34 -41.02 18.68 -40 18 C-39.42251197 16.03638136 -39.42251197 16.03638136 -39.3125 13.875 C-39.209375 12.59625 -39.10625 11.3175 -39 10 C-37.72382813 9.67128906 -37.72382813 9.67128906 -36.421875 9.3359375 C-27.78066045 7.07451327 -19.22708536 4.60675022 -10.70410156 1.93115234 C-9.89038086 1.68059082 -9.07666016 1.4300293 -8.23828125 1.171875 C-7.51680908 0.9459668 -6.79533691 0.72005859 -6.05200195 0.48730469 C-4 0 -4 0 0 0 Z " fill="#FFFFFF" transform="translate(236,70)"/>
<path d="M0 0 C0.495 2.97 0.495 2.97 1 6 C4.81060131 6.70894908 8.08021183 7 12 7 C12 14.26 12 21.52 12 29 C5.60087893 30.06652018 -0.40956333 30.22110419 -6.875 30.25 C-8.59396484 30.2809375 -8.59396484 30.2809375 -10.34765625 30.3125 C-18.79303527 30.35137401 -26.10474232 29.59072484 -32.6796875 23.64453125 C-37.20064577 18.01339684 -38.08731454 12.00878913 -38 5 C-32.90990931 4.28618749 -27.81957483 3.57414918 -22.72900391 2.86376953 C-20.99651342 2.62174714 -19.26409113 2.37923609 -17.53173828 2.13623047 C-15.04477325 1.78745747 -12.55757001 1.44043021 -10.0703125 1.09375 C-9.29317902 0.9843811 -8.51604553 0.87501221 -7.71536255 0.7623291 C-2.22774341 0 -2.22774341 0 0 0 Z " fill="#FFFFFF" transform="translate(180,83)"/>
<path d="M0 0 C0 7.59 0 15.18 0 23 C-14.19 23 -28.38 23 -43 23 C-43 16.07 -43 9.14 -43 2 C-38.64429933 1.71184969 -34.28856044 1.42596748 -29.93237305 1.14550781 C-28.45540208 1.04977375 -26.97851069 0.95280268 -25.50170898 0.85449219 C-23.35941815 0.71210867 -21.21686523 0.57441568 -19.07421875 0.4375 C-17.79119873 0.35371094 -16.50817871 0.26992187 -15.1862793 0.18359375 C-10.12867773 -0.03821277 -5.06246301 0 0 0 Z " fill="#FFFFFF" transform="translate(136,89)"/>
<path d="M0 0 C12.87 0 25.74 0 39 0 C39 6.93 39 13.86 39 21 C26.13 21 13.26 21 0 21 C0 14.07 0 7.14 0 0 Z " fill="#FFFFFF" transform="translate(48,91)"/>
<path d="M0 0 C-1.37732999 4.10284014 -3.23643659 6.66842384 -6.1875 9.8125 C-6.99445313 10.68390625 -7.80140625 11.5553125 -8.6328125 12.453125 C-9.41398437 13.29359375 -10.19515625 14.1340625 -11 15 C-12.76005618 16.98834799 -14.50117879 18.99160182 -16.23828125 21 C-17.50432135 22.43727834 -18.79676404 23.85145842 -20.10546875 25.25 C-20.81316406 26.013125 -21.52085937 26.77625 -22.25 27.5625 C-22.89453125 28.24441406 -23.5390625 28.92632813 -24.203125 29.62890625 C-26.18195028 32.022244 -26.18195028 32.022244 -27.34765625 35.375 C-29.31532777 39.6917829 -31.77391555 42.23299257 -35.1875 45.4375 C-35.74630859 45.97826172 -36.30511719 46.51902344 -36.88085938 47.07617188 C-38.24486291 48.39354281 -39.62118364 49.69814083 -41 51 C-41.66 50.67 -42.32 50.34 -43 50 C-43.31241371 47.45058627 -43.51303421 44.99638487 -43.625 42.4375 C-43.66367187 41.72658203 -43.70234375 41.01566406 -43.7421875 40.28320312 C-43.83671783 38.52257575 -43.91945817 36.76132272 -44 35 C-44.59167969 34.93941406 -45.18335938 34.87882812 -45.79296875 34.81640625 C-49.90978208 34.37987629 -53.95544533 33.91328654 -58 33 C-58 32.34 -58 31.68 -58 31 C-55.6740586 29.39548959 -53.36615292 27.93292811 -50.9375 26.5 C-49.95233398 25.89478516 -49.95233398 25.89478516 -48.94726562 25.27734375 C-45.79054772 23.39264321 -43.10395586 22.02894825 -39.53515625 21.03515625 C-34.99290946 19.70510608 -31.46833342 17.4675122 -27.5 14.9375 C-25.9155995 13.95014377 -24.3309599 12.96317112 -22.74609375 11.9765625 C-21.9557373 11.4805957 -21.16538086 10.98462891 -20.35107422 10.47363281 C-16.76959856 8.22879511 -13.17215173 6.0116839 -9.5625 3.8125 C-8.94246094 3.42634521 -8.32242188 3.04019043 -7.68359375 2.64233398 C-4.88703177 0.94033445 -3.33874213 0 0 0 Z " fill="#FFFFFF" transform="translate(329,0)"/>
</svg>
