<?xml version="1.0" encoding="UTF-8"?>
<!-- Generated by Pixelmator Pro 2.4.2 -->
<svg width="706" height="194" viewBox="0 0 706 194" xmlns="http://www.w3.org/2000/svg" xmlns:xlink="http://www.w3.org/1999/xlink">
    <g id="g1">
        <g id="group-R5">
            <path id="path2" fill="#ffffff" stroke="none" d="M 159.456009 39.824005 C 172.223999 36.945328 185.856003 37.23201 197.951996 42.511993 L 198.527985 38.768005 L 241.919998 39.057343 C 248.35199 37.712006 255.167999 37.615997 261.695984 39.152008 L 263.135986 39.536011 L 267.455994 12.369339 L 323.423981 12.369339 L 319.199982 38.576004 C 322.366669 38.095993 325.53598 38 328.799988 38.095993 L 332.926666 12.369339 L 388.702667 12.369339 L 385.248016 33.872009 C 386.399994 31.952011 387.551971 30.224014 388.895996 28.496002 C 398.783966 16.688004 411.455994 12.272003 426.431976 11.216003 C 435.551971 10.927994 444.575989 11.408005 453.023987 15.152008 L 453.40799 12.369339 L 509.376007 12.369339 L 504.767975 40.784012 C 507.936005 39.824005 511.007996 39.248001 514.176025 38.768005 C 528.862671 36.945328 544.319946 37.809326 555.839966 48.175995 C 566.687988 39.057343 582.335999 37.328003 595.967957 38.28801 C 604.895996 39.152008 614.111938 41.552002 620.832031 47.984009 C 628.511963 41.744003 638.111938 39.248001 647.806641 38.28801 C 662.687988 37.328003 677.76001 38.959991 688.127991 50.672012 C 692.832031 56.720001 694.655945 62.576004 695.039978 70.159866 C 695.039978 72.848396 694.847961 75.344269 694.463989 78.032272 L 688.895996 112.976532 L 685.824036 112.976532 C 687.455994 118.544266 687.552002 123.728668 686.783997 129.39267 L 683.711975 148.399994 C 681.119995 160.016144 675.744019 168.657333 665.76001 175.280273 C 653.375977 182.576035 638.783997 183.823959 624.671997 182.001556 C 617.279968 180.847916 609.503967 178.447861 603.935974 173.168274 C 591.839966 182.097397 576.478638 183.728119 561.983948 182.288025 C 557.280029 181.711975 552.960022 180.752075 548.544006 178.928131 L 548.160034 181.231781 L 509.663971 181.231781 C 502.944 182.865112 496.319977 182.9599 489.503998 182.38385 C 487.104004 182.001556 484.608002 181.61615 482.303986 180.847916 L 482.303986 181.231781 L 426.335999 181.231781 L 426.623993 179.407867 C 415.007996 183.34375 402.527985 183.247925 390.719971 180.368271 C 378.431976 176.816132 368.735992 169.329193 365.664001 156.368271 L 361.727997 181.231781 L 327.64801 181.231781 L 325.343994 180.657333 C 315.934662 183.631775 305.759979 183.537491 296.544006 179.889603 L 296.35199 181.231781 L 240.383987 181.231781 L 231.647995 181.231781 L 175.679993 181.231781 L 175.775986 180.55986 C 172.703995 181.425522 169.631989 181.90416 166.367996 182.288025 C 151.008011 183.728119 134.112 182.288025 123.168266 170.097336 L 120.095863 181.231781 L 11.231772 181.231781 L 18.911467 12.369339 L 167.136002 12.369339 L 159.456009 39.824005"/>
            <path id="path3" fill="none" stroke="#000000" stroke-width="22.463999" stroke-linecap="round" stroke-linejoin="round" d="M 159.456009 39.824005 C 172.223999 36.945328 185.856003 37.23201 197.951996 42.511993 L 198.527985 38.768005 L 241.919998 39.057343 C 248.35199 37.712006 255.167999 37.615997 261.695984 39.152008 L 263.135986 39.536011 L 267.455994 12.369339 L 323.423981 12.369339 L 319.199982 38.576004 C 322.366669 38.095993 325.53598 38 328.799988 38.095993 L 332.926666 12.369339 L 388.702667 12.369339 L 385.248016 33.872009 C 386.399994 31.952011 387.551971 30.224014 388.895996 28.496002 C 398.783966 16.688004 411.455994 12.272003 426.431976 11.216003 C 435.551971 10.927994 444.575989 11.408005 453.023987 15.152008 L 453.40799 12.369339 L 509.376007 12.369339 L 504.767975 40.784012 C 507.936005 39.824005 511.007996 39.248001 514.176025 38.768005 C 528.862671 36.945328 544.319946 37.809326 555.839966 48.175995 C 566.687988 39.057343 582.335999 37.328003 595.967957 38.28801 C 604.895996 39.152008 614.111938 41.552002 620.832031 47.984009 C 628.511963 41.744003 638.111938 39.248001 647.806641 38.28801 C 662.687988 37.328003 677.76001 38.959991 688.127991 50.672012 C 692.832031 56.720001 694.655945 62.576004 695.039978 70.159866 C 695.039978 72.848396 694.847961 75.344269 694.463989 78.032272 L 688.895996 112.976532 L 685.824036 112.976532 C 687.455994 118.544266 687.552002 123.728668 686.783997 129.39267 L 683.711975 148.399994 C 681.119995 160.016144 675.744019 168.657333 665.76001 175.280273 C 653.375977 182.576035 638.783997 183.823959 624.671997 182.001556 C 617.279968 180.847916 609.503967 178.447861 603.935974 173.168274 C 591.839966 182.097397 576.478638 183.728119 561.983948 182.288025 C 557.280029 181.711975 552.960022 180.752075 548.544006 178.928131 L 548.160034 181.231781 L 509.663971 181.231781 C 502.944 182.865112 496.319977 182.9599 489.503998 182.38385 C 487.104004 182.001556 484.608002 181.61615 482.303986 180.847916 L 482.303986 181.231781 L 426.335999 181.231781 L 426.623993 179.407867 C 415.007996 183.34375 402.527985 183.247925 390.719971 180.368271 C 378.431976 176.816132 368.735992 169.329193 365.664001 156.368271 L 361.727997 181.231781 L 327.64801 181.231781 L 325.343994 180.657333 C 315.934662 183.631775 305.759979 183.537491 296.544006 179.889603 L 296.35199 181.231781 L 240.383987 181.231781 L 231.647995 181.231781 L 175.679993 181.231781 L 175.775986 180.55986 C 172.703995 181.425522 169.631989 181.90416 166.367996 182.288025 C 151.008011 183.728119 134.112 182.288025 123.168266 170.097336 L 120.095863 181.231781 L 11.231772 181.231781 L 18.911467 12.369339 L 167.136002 12.369339 Z"/>
            <path id="path4" fill="#ffffff" stroke="none" d="M 159.456009 39.824005 C 172.223999 36.945328 185.856003 37.23201 197.951996 42.511993 L 198.527985 38.768005 L 241.919998 39.057343 C 248.35199 37.712006 255.167999 37.615997 261.695984 39.152008 L 263.135986 39.536011 L 267.455994 12.369339 L 323.423981 12.369339 L 319.199982 38.576004 C 322.366669 38.095993 325.53598 38 328.799988 38.095993 L 332.926666 12.369339 L 388.702667 12.369339 L 385.248016 33.872009 C 386.398651 31.952011 387.551971 30.224014 388.895996 28.496002 C 398.783966 16.688004 411.455994 12.272003 426.431976 11.216003 C 435.551971 10.927994 444.575989 11.408005 453.023987 15.152008 L 453.406647 12.369339 L 509.374664 12.369339 L 504.767975 40.784012 C 507.934662 39.824005 511.007996 39.248001 514.174683 38.768005 C 528.861328 36.945328 544.319946 37.809326 555.838684 48.175995 C 566.687988 39.057343 582.335999 37.328003 595.966675 38.28801 C 604.895996 39.152008 614.111938 41.552002 620.830627 47.984009 C 628.510681 41.744003 638.111938 39.248001 647.806641 38.28801 C 662.687988 37.328003 677.76001 38.959991 688.127991 50.672012 C 692.830627 56.720001 694.655945 62.576004 695.038635 70.159866 C 695.038635 72.848396 694.84668 75.344269 694.463989 78.032272 L 688.895996 112.976532 L 685.822632 112.976532 C 687.455994 118.544266 687.552002 123.7276 686.783997 129.392136 L 683.710632 148.399994 C 681.119995 160.016144 675.742615 168.657333 665.76001 175.280273 C 653.374634 182.576035 638.783997 183.823959 624.671997 182.001556 C 617.278625 180.846878 609.502625 178.447861 603.934631 173.168274 C 591.838684 182.097397 576.478638 183.726563 561.983948 182.286453 C 557.278625 181.711975 552.958618 180.750519 548.544006 178.928131 L 548.15863 181.231781 L 509.663971 181.231781 C 502.942657 182.865112 496.319977 182.958847 489.502655 182.38385 C 487.104004 182.001556 484.606659 181.614594 482.302643 180.846878 L 482.302643 181.231781 L 426.335999 181.231781 L 426.62265 179.406799 C 415.007996 183.34375 402.526642 183.247925 390.718628 180.368271 C 378.431976 176.816132 368.73465 169.329193 365.664001 156.368271 L 361.726654 181.231781 L 327.64801 181.231781 L 325.343994 180.657333 C 315.934662 183.630737 305.759979 183.537491 296.544006 179.889603 L 296.35199 181.231781 L 240.383987 181.231781 L 231.647995 181.231781 L 175.679993 181.231781 L 175.775986 180.55986 C 172.703995 181.425522 169.631989 181.90416 166.367996 182.286453 C 151.008011 183.726563 134.112 182.286453 123.168266 170.097336 L 120.095863 181.231781 L 11.231772 181.231781 L 18.911467 12.369339 L 167.136002 12.369339 L 159.456009 39.824005"/>
            <path id="path5" fill="#000000" stroke="none" d="M 238.079987 100.400543 L 263.615997 100.400543 L 268.608002 69.00827 C 269.375977 64.208267 268.223999 60.369339 265.056 57.488007 C 264.47998 57.008011 264 56.528 263.424011 56.143997 C 260.543976 54.127991 256.895996 53.072006 252.671997 53.072006 C 245.567993 53.072006 240.095993 54.608017 236.255997 57.584 L 236.831985 53.840012 L 211.391983 53.840012 L 197.856003 138.031738 L 193.343994 166.159866 L 197.856003 166.159866 L 218.783997 166.159866 L 233.279984 75.824539 C 233.856003 72.560402 235.584 70.832802 238.463989 70.832802 C 241.440002 70.832802 242.59198 72.560402 242.015991 76.016136 L 238.079987 100.400543"/>
            <path id="path6" fill="#000000" stroke="none" d="M 690.814636 11.888016 L 690.814636 7.184006 L 693.983948 7.184006 C 694.94397 7.184006 695.711975 7.375992 696.191956 7.664001 C 696.862671 7.952011 697.247986 8.624008 697.247986 9.393326 C 697.247986 10.447998 696.862671 11.216003 696.096008 11.505341 C 695.616028 11.791992 694.75061 11.888016 693.599976 11.888016 Z M 698.590698 12.464005 C 699.263977 11.791992 699.647949 10.833344 699.647949 9.584 C 699.647949 8.048004 699.167969 6.992004 698.303955 6.320007 C 697.439941 5.64801 696.096008 5.264008 694.271973 5.264008 L 693.599976 5.264008 L 688.511963 5.264008 L 688.511963 20.432007 L 690.814636 20.432007 L 690.814636 13.809326 L 693.503967 13.809326 L 693.599976 14 L 697.439941 20.432007 L 700.03064 20.432007 L 695.711975 13.712006 C 696.960022 13.615997 697.824036 13.136002 698.590698 12.464005"/>
            <path id="path7" fill="#000000" stroke="none" d="M 701.18396 20.624008 C 699.167969 22.736008 696.575989 23.791992 693.599976 23.791992 C 690.527954 23.791992 688.03064 22.736008 686.015991 20.624008 C 683.903931 18.511993 682.94397 15.921341 682.94397 12.751999 C 682.94397 9.680008 683.903931 7.088013 686.015991 5.072006 C 688.03064 2.959991 690.527954 1.904007 693.599976 1.904007 C 696.575989 1.904007 699.07196 2.959991 701.18396 5.072006 C 703.198669 7.184006 704.2547 9.680008 704.2547 12.751999 C 704.2547 15.921341 703.198669 18.511993 701.18396 20.624008 Z M 702.911987 3.440018 C 700.319946 0.945328 697.247986 -0.304001 693.599976 -0.304001 C 689.952026 -0.304001 686.783997 0.945328 684.191956 3.440018 C 681.599976 5.936005 680.2547 9.104004 680.2547 12.751999 C 680.2547 16.593338 681.599976 19.664001 684.191956 22.257339 C 686.783997 24.656006 689.855957 25.904007 693.599976 25.904007 C 697.247986 25.904007 700.416016 24.656006 703.007996 22.160004 C 705.599976 19.664001 706.847961 16.593338 706.847961 12.751999 C 706.847961 9.104004 705.503967 6.03334 702.911987 3.440018"/>
            <path id="path8" fill="#000000" stroke="none" d="M 147.359985 27.440018 L 124.223999 27.440018 L 104.543732 91.47187 L 107.136002 27.440018 L 75.359863 27.440018 L 55.487465 91.47187 L 58.559864 27.440018 L 33.312 27.440018 L 26.976 166.159866 L 55.679729 166.159866 L 77.471863 89.648399 L 75.263596 166.159866 L 108.671867 166.159866 L 139.104004 56.912003 L 147.359985 27.440018"/>
            <path id="path9" fill="#000000" stroke="none" d="M 176.543991 76.016136 L 166.559982 138.031738 L 165.503998 144.752136 C 164.927994 148.592133 163.104004 150.511993 160.223999 150.511993 C 157.248001 150.511993 156.095993 148.592133 156.671997 144.752136 L 166.559982 82.736404 L 167.71199 76.016136 C 168.287994 72.271873 170.015991 70.448402 172.991989 70.448402 C 175.968002 70.448402 177.119995 72.271873 176.543991 76.016136 Z M 202.079987 75.824539 C 203.136002 69.00827 201.695984 63.824539 197.856003 60.17601 C 197.279999 59.600006 196.608002 59.024002 195.936005 58.544006 C 190.559982 54.895996 184.031998 53.072006 176.159988 53.072006 C 172.703995 53.072006 169.535995 53.264008 166.559982 53.744003 C 152.352005 56.048004 144.191986 63.728668 142.079987 76.784401 L 139.104004 95.408272 L 131.327591 143.983871 C 129.791733 153.488007 132.383331 160.209335 139.104004 163.952133 C 143.520004 166.447861 149.759995 167.695862 157.824005 167.695862 C 160.991989 167.695862 163.871994 167.504135 166.559982 167.119736 C 180.76799 165.105194 188.927994 157.712006 190.943985 145.040131 L 197.856003 101.936401 L 202.079987 75.824539"/>
            <path id="path10" fill="#000000" stroke="none" d="M 305.759979 27.440018 L 280.319977 27.440018 L 263.424011 132.560394 L 258.048004 166.159866 L 263.424011 166.159866 L 283.583984 166.159866 L 298.751984 71.216133 L 305.759979 27.440018"/>
            <path id="path11" fill="#000000" stroke="none" d="M 513.216003 145.136002 C 512.927979 147.15213 512.254639 148.592133 511.104004 149.455734 C 510.335999 150.031738 509.376007 150.321335 508.223969 150.321335 C 505.151978 150.321335 503.903992 148.592133 504.478668 145.136002 L 507.743988 124.784401 C 508.127991 122.576004 509.18396 120.752136 511.104004 119.216133 C 512.735962 117.968269 515.039978 117.00827 517.91864 116.240135 Z M 549.694641 76.784401 C 550.75061 70.159866 549.888 64.880264 547.198669 61.040665 C 543.455994 55.759995 536.063965 53.072006 525.023987 53.072006 C 519.839966 53.072006 515.135986 53.552002 511.104004 54.608017 C 499.487976 57.488007 492.86264 64.592667 491.040009 75.824539 L 487.391968 98.288536 L 511.104004 98.288536 L 511.967987 98.288536 C 512.254639 96.656265 512.544006 94.256805 512.735962 91.088539 C 513.119995 87.920807 513.40802 85.520264 513.694641 83.888535 C 515.135986 74.960403 517.440002 70.448402 520.799988 70.448402 C 523.776001 70.448402 524.927979 72.271873 524.35199 76.016136 L 521.664001 92.624542 C 521.375977 94.544266 518.015991 97.136002 511.583984 100.400543 C 511.391968 100.496407 511.29599 100.496407 511.104004 100.592667 C 500.254639 106.064537 492.86264 110.672409 488.927979 114.41613 C 487.29599 115.952675 485.855988 117.680267 484.799988 119.504662 C 483.263977 122.000542 482.303986 124.687996 481.823975 127.568268 L 478.175995 150.128143 C 476.927979 157.904144 479.135986 163.089066 484.799988 165.680267 C 487.679993 167.024002 491.519989 167.695862 496.223969 167.695862 C 503.040009 167.695862 508.03064 166.545334 511.104004 164.335999 C 512.063965 163.568268 512.927979 162.800003 513.503967 161.840134 L 512.83197 166.159866 L 535.295959 166.159866 L 547.198669 92.336403 L 549.694641 76.784401"/>
            <path id="path12" fill="#000000" stroke="none" d="M 601.151978 108.944801 C 588.191956 101.456268 581.279968 96.080269 580.319946 93.00827 C 579.455994 89.936401 579.455994 85.328133 580.511963 79.28067 C 581.375977 73.424538 583.487976 70.448402 586.655945 70.448402 C 589.824036 70.448402 590.590698 75.152672 589.151978 84.463997 L 586.366638 98.000542 L 611.231995 98.000542 L 612.096008 92.528137 L 614.783997 75.824539 C 615.839966 69.39267 614.97467 64.400543 612.096008 60.752136 C 608.2547 55.664001 600.767944 53.072006 589.534607 53.072006 C 569.76001 53.072006 558.624023 60.944809 556.127991 76.784401 L 553.727966 91.85627 C 552.767944 97.904137 553.343994 102.320267 555.647949 105.39267 C 557.855957 108.368797 565.055969 113.648399 577.151978 121.232269 C 580.223999 123.920799 580.992004 130.064545 579.455994 139.568268 C 578.303955 146.863998 576.288025 150.511993 573.40802 150.511993 C 570.527954 150.511993 569.471985 148.592133 570.047974 144.752136 L 573.888 120.944801 L 548.447998 120.944801 L 547.198669 129.104126 L 544.607971 145.040131 C 543.64801 151.183868 544.512024 156.080261 547.198669 159.728134 C 551.039978 165.105194 558.814636 167.695862 570.527954 167.695862 C 590.590698 167.695862 601.91864 159.824005 604.416016 143.983871 L 607.103943 127.184402 C 608.35199 119.599998 606.335999 113.552132 601.151978 108.944801"/>
            <path id="path13" fill="#000000" stroke="none" d="M 338.016022 75.44014 L 328.03067 137.936005 L 326.880005 145.136002 C 326.305328 148.592133 324.575989 150.321335 321.694641 150.321335 C 318.719971 150.321335 317.471985 148.592133 317.951965 145.136002 L 328.03067 82.736404 L 329.18399 75.632271 C 329.664001 72.176537 331.486633 70.448402 334.463989 70.448402 C 337.343994 70.448402 338.590637 72.080269 338.016022 75.44014 Z M 340.991974 57.199997 C 338.208008 54.70401 333.983978 53.360001 328.03067 53.169342 C 327.359985 53.072006 326.590637 53.072006 325.91864 53.072006 C 320.735992 53.072006 316.223969 54.416 312.095978 57.296005 C 308.063995 60.080002 305.664001 63.920807 304.895996 68.624542 L 298.751984 106.928673 L 291.934662 149.359863 C 291.071991 155.024002 292.608002 159.441193 296.639984 162.800003 C 297.312012 163.280273 297.983978 163.856262 298.751984 164.240128 C 302.496002 166.545334 307.007996 167.695862 312.478668 167.695862 C 317.951965 167.695862 323.135986 165.968262 328.03067 162.511993 C 328.03067 162.416138 328.127991 162.416138 328.127991 162.416138 L 329.664001 166.159866 L 348.863983 166.159866 L 371.135986 27.440018 L 345.694641 27.440018 L 340.991974 57.199997"/>
            <path id="path14" fill="#000000" stroke="none" d="M 654.335999 53.072006 C 634.559998 53.072006 623.422668 60.944809 620.927979 76.784401 L 618.527954 91.85627 C 617.567932 97.904137 618.142639 102.320267 620.447937 105.39267 C 622.655945 108.368797 629.855957 113.648399 641.952026 121.232269 C 645.023987 123.920799 645.791992 130.064545 644.2547 139.568268 C 643.103943 146.863998 641.086609 150.511993 638.208008 150.511993 C 635.328003 150.511993 634.271973 148.592133 634.847961 144.752136 L 638.687988 120.944801 L 613.247986 120.944801 L 612.096008 128.240143 L 609.40802 145.040131 C 608.447937 151.280273 609.310669 156.271866 612.096008 159.919739 C 616.03064 165.105194 623.806641 167.695862 635.328003 167.695862 C 655.391968 167.695862 666.719971 159.824005 669.216003 143.983871 L 671.903931 127.184402 C 673.151978 119.599998 671.135986 113.552132 665.952026 108.944801 C 652.992004 101.456268 646.080017 96.080269 645.119995 93.00827 C 644.2547 89.936401 644.2547 85.328133 645.310669 79.28067 C 646.175964 73.424538 648.288025 70.448402 651.455994 70.448402 C 654.624023 70.448402 655.391968 75.152672 653.952026 84.463997 L 651.167969 98.000542 L 676.03064 98.000542 L 679.583984 75.824539 C 682.080017 60.656006 673.632019 53.072006 654.335999 53.072006"/>
            <path id="path15" fill="#000000" stroke="none" d="M 491.712006 27.440018 L 466.272003 27.440018 L 450.431976 125.936401 L 444 166.159866 L 450.431976 166.159866 L 469.440002 166.159866 L 484.799988 70.544266 L 491.712006 27.440018"/>
            <path id="path16" fill="#000000" stroke="none" d="M 421.151978 110.480667 L 415.679993 144.655731 C 415.29599 146.959869 413.855988 148.113602 411.359985 148.113602 C 408.671997 148.113602 407.422638 146.959869 407.806671 144.655731 L 423.263977 48.464005 C 423.64801 46.160004 425.18396 45.008011 427.872009 45.008011 C 430.366669 45.008011 431.519989 46.160004 431.135986 48.464005 L 426.719971 75.920807 L 450.431976 75.920807 L 452.351959 75.920807 L 456.383972 50.768005 C 457.91864 41.552002 455.903992 34.927994 450.431976 30.895996 C 446.208008 27.727997 439.776001 26.192001 431.231995 26.192001 C 409.534668 26.192001 397.248016 35.12001 394.366669 53.169342 L 380.063995 142.447876 C 377.376007 159.15213 386.880005 167.407867 408.575989 167.407867 C 416.063995 167.407867 423.167999 165.488007 429.694641 161.455734 C 436.319977 157.519745 440.159973 152.240143 441.216003 145.616135 L 446.880005 110.480667 L 421.151978 110.480667"/>
        </g>
    </g>
</svg>
