<?xml version="1.0" encoding="UTF-8"?>
<svg version="1.1" xmlns="http://www.w3.org/2000/svg" width="324" height="481">
<path d="M0 0 C7.02103234 6.6640307 12.48185486 17.86484001 12.84863281 27.5390625 C12.85124033 30.00751633 12.82131385 32.47016275 12.75 34.9375 C13.95011719 34.84210937 15.15023437 34.74671875 16.38671875 34.6484375 C41.11896582 32.90729533 63.91053111 35.75374485 85.75 47.9375 C86.16958984 46.50470703 86.16958984 46.50470703 86.59765625 45.04296875 C90.18440518 33.27953166 94.94913051 21.84840117 105.75 14.9375 C114.05268427 11.40647336 122.17104233 12.77630111 130.46875 15.48828125 C140.10408269 19.74388652 149.19600595 30.0612626 153.6875 39.5625 C155.9329166 46.69499977 156.53999821 52.91713865 153.75 59.9375 C148.70674332 69.25538867 141.52810004 74.51809373 132.75 79.9375 C133.28109375 80.906875 133.8121875 81.87625 134.359375 82.875 C139.43669936 92.40533831 142.58001856 101.38690056 144.75 111.9375 C145.00136719 113.07574219 145.25273437 114.21398437 145.51171875 115.38671875 C146.28265876 118.8987788 147.01621202 122.41749729 147.75 125.9375 C148.09544193 127.54316528 148.44185477 129.14862188 148.7890625 130.75390625 C149.1511171 132.44008797 149.51309678 134.12628578 149.875 135.8125 C150.04580078 136.59729736 150.21660156 137.38209473 150.39257812 138.19067383 C161.12399769 188.57169584 147.96795932 264.07166265 120.75 307.9375 C118.24236674 311.42678561 115.57111229 314.69969647 112.75 317.9375 C111.97269531 318.92363281 111.19539063 319.90976562 110.39453125 320.92578125 C102.17751411 330.78151975 89.73484859 336.49172646 77.1875 337.8125 C70.23457503 338.14280522 63.18862118 338.0372525 57.3125 333.875 C50.98951759 326.62670309 51.16901759 318.23829419 51.61132812 308.95654297 C51.93499214 304.24404043 52.60057566 299.57373707 53.23046875 294.89453125 C54.52175049 285.05943046 54.96380596 275.79365402 54 265.9375 C53.92620117 265.14819092 53.85240234 264.35888184 53.77636719 263.5456543 C53.20380101 258.50460586 52.11838904 254.4443374 49.75 249.9375 C46.9519983 247.65858285 46.9519983 247.65858285 43.875 248 C39.79182705 249.22495189 38.36974883 250.55940282 35.75 253.9375 C26.53235903 271.3521435 27.1638055 298.02831645 32.85546875 316.53125 C34.91712678 322.16433409 37.19636703 327.11471239 40.75 331.9375 C42.10742723 336.0097817 42.26056595 339.68028098 41.75 343.9375 C39.02168123 349.27551499 34.20148397 351.12033868 28.75 352.9375 C11.12014859 357.67268012 -7.62483601 355.10548231 -23.484375 346.30859375 C-29.52473404 342.68161316 -34.38549111 337.98488516 -39.25 332.9375 C-39.95253906 332.25429688 -40.65507813 331.57109375 -41.37890625 330.8671875 C-55.90096916 315.90506208 -64.34155347 294.4010734 -72.75024414 275.64941406 C-75.13064926 270.34459404 -77.61092534 265.11880255 -80.25 259.9375 C-80.98136292 268.77189972 -80.9623638 275.78687295 -76.75 283.75 C-73.52889547 289.84919892 -71.72055218 295.01146395 -73.25 301.9375 C-75.84951819 306.27003032 -80.55097235 307.62453639 -85.25 308.9375 C-88.00612078 309.44278881 -90.47746917 309.77865709 -93.25 309.9375 C-94.61125 310.01677734 -94.61125 310.01677734 -96 310.09765625 C-110.5034695 310.53200495 -121.76424557 306.2880327 -132.375 296.4375 C-151.96781692 275.74086241 -156.83017613 242.84357659 -157.6875 215.4375 C-158.32105079 198.39025243 -158.32105079 198.39025243 -161.74609375 181.734375 C-163.39643086 175.84384026 -164.00913834 170.08745144 -164.4375 164 C-164.5602832 162.50823242 -164.5602832 162.50823242 -164.68554688 160.98632812 C-166.64822998 135.53742026 -162.69743771 113.2621813 -150.25 90.9375 C-149.45142578 89.47570312 -149.45142578 89.47570312 -148.63671875 87.984375 C-141.20346799 75.36813798 -130.38048367 64.9868502 -118.25 56.9375 C-117.3425 56.32519531 -116.435 55.71289062 -115.5 55.08203125 C-98.08032142 44.12215015 -76.72373062 37.8602279 -56.25 41.9375 C-54.91262906 42.25424575 -53.57711192 42.58020064 -52.25 42.9375 C-52.745 41.82375 -53.24 40.71 -53.75 39.5625 C-56.13893767 33.0815064 -56.28518845 26.84254742 -53.75 20.375 C-48.86059051 10.66456436 -39.1303758 0.97349396 -28.9375 -3 C-18.59252562 -5.98075533 -9.31309552 -5.91023369 0 0 Z " fill="#000000" transform="translate(167.25,7.0625)"/>
<path d="M0 0 C9.08455062 7.92094306 18.14508041 17.46397765 19.203125 29.9921875 C19.27064168 39.02254298 15.33552316 45.59398203 9.21875 52.08203125 C5.1442706 55.4603077 0.71619271 58.30540885 -3.78125 61.08203125 C-2.98460937 62.53609375 -2.98460937 62.53609375 -2.171875 64.01953125 C6.18223239 79.70298078 10.17830561 95.32189217 8.53125 113.14453125 C8.43875977 114.15314209 8.34626953 115.16175293 8.25097656 116.20092773 C6.0034715 138.47923301 -1.36055746 158.32441065 -18.40625 173.33203125 C-32.0387867 184.09087127 -46.78070037 191.59513332 -64.37646484 191.58007812 C-69.975349 191.66436507 -73.19333895 192.80495193 -77.78125 196.08203125 C-79.74249588 198.37514061 -79.74249588 198.37514061 -81.21875 200.83203125 C-84.2932577 204.98603276 -84.2932577 204.98603276 -88.59375 205.83203125 C-94.23724895 205.15129791 -99.92309059 203.38819404 -105.08325195 201.0300293 C-108.07236429 199.97974216 -110.19060301 199.92173451 -113.34375 200.0625 C-114.38789063 200.09150391 -115.43203125 200.12050781 -116.5078125 200.15039062 C-118.6905615 200.22983435 -120.87291565 200.32098804 -123.0546875 200.42382812 C-131.03343554 200.6159091 -131.03343554 200.6159091 -134.8125 197.91796875 C-137.35410353 194.25684938 -139.67894834 190.54372818 -141.9375 186.703125 C-145.28895151 181.93866745 -148.79819931 179.80115954 -154.34375 178.26953125 C-172.1801042 172.62317618 -184.51929238 160.32016346 -193.34765625 144.2265625 C-196.47423144 137.75875173 -198.34346053 131.10582709 -199.78125 124.08203125 C-199.966875 123.18871094 -200.1525 122.29539063 -200.34375 121.375 C-202.17783852 107.57020871 -201.10099155 93.54782274 -197.78125 80.08203125 C-197.51441406 78.90511719 -197.24757813 77.72820312 -196.97265625 76.515625 C-193.90016732 64.2939468 -187.9123839 50.15017216 -177.78125 42.08203125 C-173.993738 40.95242241 -171.26083174 41.05587225 -167.34375 41.26953125 C-160.33505197 40.90065241 -156.10946214 37.52007514 -151.15625 32.76953125 C-145.32550155 27.29079393 -138.99848751 24.38280575 -131.78125 21.08203125 C-127.44187562 19.06121689 -127.44187562 19.06121689 -123.78125 16.08203125 C-98.37486389 12.87062261 -73.17904105 16.58680055 -50.78125 29.08203125 C-50.36166016 27.64923828 -50.36166016 27.64923828 -49.93359375 26.1875 C-46.34684482 14.42406291 -41.58211949 2.99293242 -30.78125 -3.91796875 C-20.81281394 -8.15741857 -8.7737716 -6.05045204 0 0 Z " fill="#FDFDFD" transform="translate(303.78125,25.91796875)"/>
<path d="M0 0 C2.82807438 2.43345935 3.76875933 3.75170965 4.44140625 7.3828125 C4 10 4 10 1.578125 12.25390625 C0.47742727 13.03579866 -0.63268622 13.80454146 -1.75 14.5625 C-21.13362352 28.64323242 -36.09086142 48.9294695 -43 72 C-43.33427002 73.09836182 -43.66854004 74.19672363 -44.01293945 75.32836914 C-47.90301729 89.53037935 -47.76716058 104.06587493 -47.89379883 118.67724609 C-47.9260055 122.38631364 -47.98947186 126.09406019 -48.06249142 129.80252266 C-48.11656632 132.71451197 -48.15465447 135.62655338 -48.18820381 138.53884506 C-48.21385071 140.55475666 -48.25169193 142.57050186 -48.2900238 144.58621216 C-48.34535345 154.10420292 -46.99859774 162.73266103 -45 172 C-44.60115947 173.99940248 -44.2046169 175.99926804 -43.8125 178 C-43.54271996 179.33354685 -43.27237185 180.6669801 -43 182 C-47.52443228 180.56643446 -50.50683946 178.03290581 -53.875 174.8125 C-54.40528809 174.31202148 -54.93557617 173.81154297 -55.48193359 173.29589844 C-56.52925808 172.30464057 -57.57379522 171.31042762 -58.61523438 170.31298828 C-59.71727042 169.2680747 -60.84647653 168.25183472 -61.984375 167.24609375 C-80.50984584 150.35262867 -90.10134606 122.64525932 -91.28515625 98.19140625 C-91.57840612 87.81204263 -90.4594827 78.07216724 -88 68 C-87.73316406 66.90429688 -87.46632813 65.80859375 -87.19140625 64.6796875 C-80.37951623 40.03578318 -64.60116438 19.71141084 -44 5 C-42.66844088 4.32979665 -41.33585614 3.661597 -40 3 C-39.67 2.34 -39.34 1.68 -39 1 C-27.73788232 -3.43967749 -11.51501961 -4.05429003 0 0 Z " fill="#FDFDFD" transform="translate(116,50)"/>
<path d="M0 0 C4.10520641 -0.69669019 8.28014715 -0.50922319 12.4375 -0.5 C14.17483398 -0.54253906 14.17483398 -0.54253906 15.94726562 -0.5859375 C17.61112305 -0.58980469 17.61112305 -0.58980469 19.30859375 -0.59375 C20.32751709 -0.60083984 21.34644043 -0.60792969 22.39624023 -0.61523438 C25 0 25 0 26.71435547 2.05541992 C28.23344642 5.53467475 29.30690564 9.04303105 30.26171875 12.70703125 C30.45723831 13.43242599 30.65275787 14.15782074 30.85420227 14.90519714 C31.47252529 17.20576921 32.08015252 19.5090089 32.6875 21.8125 C33.10671686 23.37974604 33.52663149 24.94680562 33.94726562 26.51367188 C34.97293113 30.34033729 35.98901868 34.16943016 37 38 C45.18201923 27.72301489 45.18201923 27.72301489 46.4375 15 C46.32332577 13.39642942 46.21758913 11.79223144 46.12109375 10.1875 C46.07581543 9.45917969 46.03053711 8.73085938 45.98388672 7.98046875 C46.00882379 4.91547568 46.80413695 2.19586305 49 0 C52.42784729 -0.33427964 55.87044808 -0.32495034 59.3125 -0.375 C60.27607422 -0.41238281 61.23964844 -0.44976562 62.23242188 -0.48828125 C69.22849145 -0.57555031 69.22849145 -0.57555031 72.4453125 1.82421875 C74.71682724 6.46427273 76.15356997 11.22616663 77.5625 16.1875 C77.85318359 17.17814453 78.14386719 18.16878906 78.44335938 19.18945312 C79.02037093 21.15800484 79.59288291 23.12788165 80.16064453 25.09912109 C81.40775856 29.40924585 82.70240217 33.70485061 84 38 C84.40839111 37.05680908 84.81678223 36.11361816 85.23754883 35.1418457 C86.76040656 31.62729488 88.28784871 28.11475203 89.81665039 24.6027832 C90.47642285 23.08541978 91.1349676 21.56752189 91.79223633 20.04907227 C92.73973861 17.8607078 93.69170751 15.67433306 94.64453125 13.48828125 C94.9352803 12.81412674 95.22602936 12.13997223 95.52558899 11.44538879 C99.84096126 1.57951937 99.84096126 1.57951937 103 0 C106.07155269 -0.26140874 108.199384 -0.43904748 110.9375 1.0625 C112.62132657 4.13300727 111.63008804 6.62710062 111 10 C110.31300688 12.19145054 109.55814463 14.36245721 108.74682617 16.51098633 C108.51901962 17.1201741 108.29121307 17.72936188 108.0565033 18.35700989 C107.30878072 20.35131374 106.55102034 22.34163322 105.79296875 24.33203125 C105.26530047 25.73274244 104.73823668 27.13368149 104.21174622 28.53483582 C102.8272036 32.21423292 101.43396139 35.89027696 100.03900146 39.56573486 C98.90995789 42.54482044 97.78697208 45.52617062 96.66434765 48.50767994 C90.77898888 64.13753312 90.77898888 64.13753312 88.26669312 70.68154907 C87.46132896 72.79142193 86.6717285 74.90743119 85.9034729 77.03109741 C85.57221405 77.92277618 85.2409552 78.81445496 84.8996582 79.7331543 C84.62539505 80.49355515 84.3511319 81.25395599 84.06855774 82.03739929 C82.7491633 84.46070724 81.33238358 85.55689541 79 87 C76.5 87.4375 76.5 87.4375 74 87 C69.50230328 83.6010817 68.16908589 78.97462924 66.328125 73.859375 C66.00084412 72.97719299 65.67356323 72.09501099 65.33636475 71.18609619 C64.29719349 68.37776557 63.27343914 65.56409709 62.25 62.75 C61.5465836 60.84077316 60.8421677 58.93191425 60.13671875 57.0234375 C58.41286782 52.35314267 56.70281817 47.67800234 55 43 C52.44381611 45.55618389 51.55210338 48.0737967 50.13671875 51.40625 C49.86285843 52.04558472 49.58899811 52.68491943 49.30683899 53.34362793 C48.42916678 55.39384078 47.55783218 57.44666163 46.6875 59.5 C36.48276401 83.51723599 36.48276401 83.51723599 33 87 C26.74385353 86.77250376 26.74385353 86.77250376 24.44702148 84.38720703 C22.62044168 81.37382803 21.4444047 78.23907653 20.28515625 74.9296875 C20.03307404 74.22802963 19.78099182 73.52637177 19.52127075 72.80345154 C18.69452847 70.49644974 17.87803848 68.18598407 17.0625 65.875 C16.49103334 64.26703183 15.91916933 62.65920483 15.34692383 61.05151367 C14.46054413 58.55961602 13.57522197 56.06736772 12.69309998 53.57395935 C10.93761199 48.61506927 9.1549084 43.66735779 7.34162903 38.72930908 C6.21564121 35.65980904 5.10099602 32.58625749 3.98800659 29.51202393 C3.45903082 28.05857573 2.92535796 26.60682749 2.38674927 25.15692139 C-2.93885944 10.79661537 -2.93885944 10.79661537 -2 3 C-1.34 2.01 -0.68 1.02 0 0 Z " fill="#000000" transform="translate(129,393)"/>
<path d="M0 0 C1.03688965 0.01047363 2.0737793 0.02094727 3.14208984 0.03173828 C4.26357422 0.03818359 5.38505859 0.04462891 6.54052734 0.05126953 C7.71615234 0.06802734 8.89177734 0.08478516 10.10302734 0.10205078 C11.87806641 0.11558594 11.87806641 0.11558594 13.68896484 0.12939453 C16.61885257 0.15302266 19.54834075 0.18596564 22.47802734 0.22705078 C26.19134149 7.59408117 28.20240816 15.17948865 30.16552734 23.16455078 C30.77176947 25.59079022 31.3797508 28.01659597 31.98974609 30.44189453 C32.25231201 31.50529053 32.51487793 32.56868652 32.78540039 33.66430664 C33.37739247 36.19108259 33.37739247 36.19108259 34.47802734 38.22705078 C41.33510523 30.77133911 44.28135167 25.02562083 43.85302734 14.72705078 C43.79308594 13.86692383 43.73314453 13.00679688 43.67138672 12.12060547 C43.42514957 8.51620304 43.354821 5.68367333 44.30224609 2.17236328 C47.97830075 -1.11430677 52.17057959 -0.49367782 56.91552734 -0.39794922 C57.87007812 -0.41728516 58.82462891 -0.43662109 59.80810547 -0.45654297 C60.72914062 -0.45009766 61.65017578 -0.44365234 62.59912109 -0.43701172 C63.43886475 -0.43137207 64.2786084 -0.42573242 65.14379883 -0.41992188 C68.60494157 0.53939496 69.58076332 2.22636337 71.47802734 5.22705078 C72.74243164 8.62451172 72.74243164 8.62451172 73.80224609 12.46142578 C73.99397903 13.14005676 74.18571198 13.81868774 74.383255 14.5178833 C74.98864274 16.66797185 75.57774498 18.82208979 76.16552734 20.97705078 C76.76702682 23.14533032 77.37187329 25.31261668 77.97993469 27.47906494 C78.52689248 29.43333765 79.0645773 31.39019856 79.60180664 33.34716797 C80.19187671 36.0977877 80.19187671 36.0977877 81.47802734 37.22705078 C82.04517456 35.95643799 82.04517456 35.95643799 82.6237793 34.66015625 C84.03727131 31.49513029 85.4519555 28.33064273 86.86743164 25.16650391 C87.47793096 23.80115553 88.08796473 22.43559889 88.69750977 21.06982422 C89.5775291 19.09823553 90.45926166 17.12742056 91.34130859 15.15673828 C92.13468628 13.38145752 92.13468628 13.38145752 92.9440918 11.5703125 C97.0214088 2.68366932 97.0214088 2.68366932 99.47802734 0.22705078 C105.70164496 -0.33873264 105.70164496 -0.33873264 108.23258972 1.50567627 C109.47802734 3.22705078 109.47802734 3.22705078 108.9675293 7.08154297 C107.29998115 13.3860194 104.95098455 19.46215121 102.64599609 25.55517578 C102.16708105 26.83377453 101.6886824 28.1125668 101.21076965 29.39154053 C99.95709245 32.74218937 98.69619355 36.09007488 97.43377686 39.43743896 C96.16459098 42.80697773 94.90281662 46.17928875 93.64013672 49.55126953 C88.79456411 62.48000743 88.79456411 62.48000743 86.74960327 67.8482666 C85.87129662 70.18207032 85.01662404 72.52485685 84.18130493 74.87438965 C83.5476149 76.62241882 83.5476149 76.62241882 82.90112305 78.40576172 C82.5306636 79.45246033 82.16020416 80.49915894 81.77851868 81.57757568 C80.35460386 84.47849993 79.2852698 85.66830736 76.47802734 87.22705078 C72.97802734 87.41455078 72.97802734 87.41455078 69.47802734 86.22705078 C68.37493896 84.65771484 68.37493896 84.65771484 67.46142578 82.68017578 C67.12655151 81.95725342 66.79167725 81.23433105 66.44665527 80.48950195 C64.93552255 76.95990726 63.55711007 73.39697001 62.24365234 69.78955078 C61.96076355 69.02400879 61.67787476 68.2584668 61.38641357 67.46972656 C60.49597577 65.05706266 59.61189801 62.64212721 58.72802734 60.22705078 C58.12037601 58.57715587 57.51230681 56.92741479 56.90380859 55.27783203 C55.42371784 51.26266483 53.9493208 47.2454495 52.47802734 43.22705078 C49.6344536 46.62841893 47.94990996 50.36429587 46.22802734 54.40673828 C45.92864258 55.09712189 45.62925781 55.78750549 45.32080078 56.49880981 C44.368197 58.69776377 43.42278106 60.89971418 42.47802734 63.10205078 C41.53202433 65.29668124 40.58449451 67.49063637 39.63525391 69.68386841 C39.04650096 71.04530017 38.45978939 72.40761724 37.87548828 73.77096558 C33.2858338 84.41924432 33.2858338 84.41924432 30.47802734 87.22705078 C27.10302734 87.22705078 27.10302734 87.22705078 23.47802734 86.22705078 C19.8234643 81.68505844 18.0093451 76.80098512 16.12255859 71.33251953 C15.81920593 70.47572601 15.51585327 69.6189325 15.20330811 68.73617554 C14.22417417 65.96511079 13.25684175 63.19010929 12.29052734 60.41455078 C11.28668671 57.55229183 10.2808805 54.69072943 9.27476501 51.82926941 C8.60973203 49.93738569 7.94571545 48.04514437 7.2827301 46.15254211 C5.41597312 40.83649407 3.49492967 35.54862277 1.49365234 30.28173828 C0.85979614 28.59914917 0.85979614 28.59914917 0.21313477 26.88256836 C-0.5383069 24.90047083 -1.30263532 22.92318249 -2.08325195 20.95239258 C-4.40645836 14.75850249 -5.47401012 8.85070821 -4.52197266 2.22705078 C-2.52197266 0.22705078 -2.52197266 0.22705078 0 0 Z " fill="#000000" transform="translate(11.52197265625,392.77294921875)"/>
<path d="M0 0 C1.90724098 -0.01925285 1.90724098 -0.01925285 3.85301208 -0.03889465 C5.24713757 -0.04706051 6.64126745 -0.05450454 8.03540039 -0.0612793 C9.08615848 -0.06739259 9.08615848 -0.06739259 10.158144 -0.07362938 C13.86388988 -0.09448425 17.56959876 -0.10878998 21.27539062 -0.11816406 C25.10688661 -0.12924392 28.93780427 -0.16366258 32.76909542 -0.20333576 C35.71245929 -0.22944699 38.655684 -0.2378508 41.59915352 -0.24144554 C43.01179485 -0.2463237 44.42442946 -0.25797267 45.83695793 -0.27648354 C47.81173664 -0.30075948 49.78679603 -0.29750159 51.76171875 -0.29296875 C52.88597763 -0.29883499 54.01023651 -0.30470123 55.16856384 -0.31074524 C57.94555664 0.17700195 57.94555664 0.17700195 59.84376526 2.01106262 C61.39830433 5.06702891 60.86050519 6.93949172 59.94555664 10.17700195 C56.97646723 13.14609136 53.71066284 12.51362313 49.72680664 12.5559082 C48.91312622 12.57290268 48.0994458 12.58989716 47.2611084 12.60740662 C44.65600378 12.66063096 42.05091539 12.70087028 39.44555664 12.73950195 C36.84028037 12.7834111 34.23512864 12.83011468 31.63000488 12.88230896 C30.00745968 12.91428954 28.38480464 12.94117237 26.76208496 12.96253967 C22.72264013 12.94611661 22.72264013 12.94611661 18.94555664 14.17700195 C18.61555664 20.44700195 18.28555664 26.71700195 17.94555664 33.17700195 C19.92040039 33.14219727 21.89524414 33.10739258 23.92993164 33.0715332 C26.51846481 33.04339697 29.10700717 33.01609664 31.69555664 32.98950195 C32.99750977 32.96436523 34.29946289 32.93922852 35.64086914 32.91333008 C37.51645508 32.89882813 37.51645508 32.89882813 39.42993164 32.8840332 C40.58203125 32.86832275 41.73413086 32.8526123 42.92114258 32.83642578 C46.25169675 33.21147608 47.62430407 33.7911926 49.94555664 36.17700195 C50.44555664 39.17700195 50.44555664 39.17700195 49.94555664 42.17700195 C47.62430407 44.56281131 46.25169675 45.14252783 42.92114258 45.51757812 C41.76904297 45.50186768 40.61694336 45.48615723 39.42993164 45.4699707 C38.17954102 45.46030273 36.92915039 45.45063477 35.64086914 45.44067383 C34.33891602 45.41553711 33.03696289 45.39040039 31.69555664 45.36450195 C30.37813477 45.3509668 29.06071289 45.33743164 27.70336914 45.32348633 C24.45035343 45.28812746 21.19816064 45.23877229 17.94555664 45.17700195 C17.96126709 46.34271729 17.97697754 47.50843262 17.99316406 48.70947266 C18.04743198 53.03117981 18.08189523 57.3528568 18.11035156 61.67480469 C18.12544537 63.54594994 18.14592253 65.41705979 18.171875 67.28808594 C18.20823257 69.97640721 18.22527679 72.66426109 18.23852539 75.3527832 C18.25400925 76.19037674 18.2694931 77.02797028 18.28544617 77.89094543 C18.2871475 83.75182589 18.2871475 83.75182589 16.56306458 85.89778137 C14.37229796 87.6303687 12.93606102 87.56433975 10.16430664 87.57543945 C9.24004883 87.57930664 8.31579102 87.58317383 7.36352539 87.5871582 C6.4005957 87.57555664 5.43766602 87.56395508 4.44555664 87.55200195 C3.48262695 87.56360352 2.51969727 87.57520508 1.52758789 87.5871582 C0.14120117 87.58135742 0.14120117 87.58135742 -1.27319336 87.57543945 C-2.11817383 87.57205566 -2.9631543 87.56867188 -3.83374023 87.56518555 C-6.60164485 87.08134998 -7.43933502 86.46174369 -9.05444336 84.17700195 C-10.14152657 80.06509784 -10.18719469 76.11905471 -10.19970703 71.87988281 C-10.20306564 71.16381363 -10.20642426 70.44774445 -10.20988464 69.7099762 C-10.21934813 67.35391485 -10.22133511 64.99792485 -10.22241211 62.6418457 C-10.22562675 60.99947582 -10.22899098 59.35710622 -10.23249817 57.71473694 C-10.23847709 54.2775913 -10.24033923 50.84047078 -10.23974609 47.40332031 C-10.23964428 42.99937144 -10.25332177 38.5955831 -10.2705183 34.19167233 C-10.2816332 30.80220296 -10.2836655 27.41277255 -10.28313637 24.02328682 C-10.28431628 22.39938361 -10.28873869 20.7754794 -10.29646873 19.15159416 C-10.3062629 16.88252327 -10.30339351 14.61380306 -10.29736328 12.34472656 C-10.2987883 11.05408798 -10.30021332 9.7634494 -10.30168152 8.43370056 C-10.06965962 5.37743531 -9.77316189 3.67732352 -8.05444336 1.17700195 C-5.30576997 -0.19733474 -3.07644674 0.02695698 0 0 Z " fill="#000000" transform="translate(257.054443359375,392.822998046875)"/>
<path d="M0 0 C9.08455062 7.92094306 18.14508041 17.46397765 19.203125 29.9921875 C19.27090169 39.05731945 15.30526683 45.53668469 9.21875 52.08203125 C4.20114407 56.64423313 -1.71000527 61.53935838 -8.71875 61.89453125 C-15.8567357 61.51137894 -20.74690902 55.18918665 -25.28125 50.33203125 C-30.96925602 44.40360039 -36.59095018 40.39812697 -43.91796875 36.73046875 C-46.79571409 35.07370404 -48.22012259 33.98838547 -49.78125 31.08203125 C-50.45875213 24.63960186 -47.70867221 18.64693928 -44.78125 13.08203125 C-44.12962891 11.82326172 -44.12962891 11.82326172 -43.46484375 10.5390625 C-39.90597663 4.12922281 -35.68793167 -1.82582724 -28.73828125 -4.7890625 C-18.96217173 -7.5309114 -8.36876651 -5.77115781 0 0 Z " fill="#000000" transform="translate(303.78125,25.91796875)"/>
<path d="M0 0 C5.54837923 3.24961571 8.49367352 7.3920239 10.76171875 13.40234375 C11.95007587 19.2450996 12.81259091 24.48168514 9.69921875 29.83984375 C-6.95030218 53.44243166 -6.95030218 53.44243166 -19.48828125 57.08984375 C-24.33350562 57.26603373 -27.00520579 55.99779093 -30.67578125 53.02734375 C-35.85162709 48.08265219 -38.64567234 43.3903581 -38.92578125 36.15234375 C-38.24723491 22.24214375 -29.32265075 10.37886929 -19.48828125 1.08984375 C-14.1076413 -2.48979197 -5.8936363 -2.15575708 0 0 Z " fill="#020202" transform="translate(172.48828125,120.91015625)"/>
<path d="M0 0 C7.96136086 4.71182581 11.28838666 14.01701898 13.76953125 22.5078125 C15.73037094 30.27175441 16.39502012 39.72332364 13.125 47.1875 C9.88512279 52.38049467 4.71713572 57.12687245 -1.3125 58.5625 C-5.36132676 59.27240989 -8.69593939 59.38422674 -12.42578125 57.48828125 C-19.01146881 52.41154734 -22.08990841 44.99346366 -25.3125 37.5625 C-25.82296875 36.42554688 -26.3334375 35.28859375 -26.859375 34.1171875 C-29.5582976 27.70345571 -32.02428404 21.53033886 -30.3125 14.5625 C-27.49704711 8.29557323 -23.73010191 2.58802892 -17.546875 -0.6953125 C-11.73046395 -2.62733715 -5.65437426 -2.33526738 0 0 Z " fill="#020202" transform="translate(256.3125,132.4375)"/>
<path d="M0 0 C4.14179222 2.92996524 6.23925473 6.46700713 7.125 11.4375 C7.34362691 16.36501428 6.04215621 20.12737011 3 24 C-0.27197813 26.93321271 -3.62833289 28.22888886 -8 28.5 C-12.36434475 28.23780099 -15.68755717 26.85121661 -19 24 C-21.76241376 20.70791988 -22.88214998 17.81021888 -23.5 13.5625 C-22.72008528 8.0056076 -21.00544539 3.55422018 -16.5 0.0625 C-10.64921734 -2.42408263 -5.98820903 -2.19724835 0 0 Z M-10 4 C-10.66 4.66 -11.32 5.32 -12 6 C-9.03 6.33 -6.06 6.66 -3 7 C-3.99 6.01 -4.98 5.02 -6 4 C-7.32 4 -8.64 4 -10 4 Z M-14 6 C-16.46442818 9.12792807 -17.01188479 10.64939873 -16.875 14.6875 C-16.32164605 18.26425255 -16.32164605 18.26425255 -13 20 C-13 15.38 -13 10.76 -13 6 C-13.33 6 -13.66 6 -14 6 Z M-3 7 C-2.9690625 8.1446875 -2.9690625 8.1446875 -2.9375 9.3125 C-3 12 -3 12 -4 15 C-2.62831762 17.19038423 -2.62831762 17.19038423 -1 19 C0.72217143 16.36609075 1.00455315 15.07588583 0.8125 11.875 C0.25088039 8.69792816 0.25088039 8.69792816 -3 7 Z M-10 9 C-10 9.99 -10 10.98 -10 12 C-8.68 11.67 -7.36 11.34 -6 11 C-7.32 10.34 -8.64 9.68 -10 9 Z M-10 15 C-10 16.65 -10 18.3 -10 20 C-10.99 20.33 -11.98 20.66 -13 21 C-10.23749964 22.38125018 -8.05268901 22.19079306 -5 22 C-4.34 21.34 -3.68 20.68 -3 20 C-4.62339805 18.29115995 -6.29319053 16.62553283 -8 15 C-8.66 15 -9.32 15 -10 15 Z " fill="#6B6B6B" transform="translate(310,357)"/>
<path d="M0 0 C0.73637695 0.00797607 1.47275391 0.01595215 2.23144531 0.02416992 C11.16382205 0.25082659 21.68794156 0.95333389 29.0625 6.375 C29.5625 8.875 29.5625 8.875 29.0625 11.375 C27.31331685 13.77138092 26.33790345 14.32144933 23.390625 14.89453125 C21.86695313 15.03955078 21.86695313 15.03955078 20.3125 15.1875 C14.9432904 15.93502918 12.10492898 17.24630519 8.3671875 21.1328125 C7.0625 22.375 7.0625 22.375 5.0625 22.375 C4.258125 21.01375 4.258125 21.01375 3.4375 19.625 C0.87281922 15.55787562 -2.64266853 14.22153023 -6.9375 12.375 C-12.83035714 9.48214286 -12.83035714 9.48214286 -13.9375 8.375 C-13.97813832 6.70882885 -13.980221 5.04111905 -13.9375 3.375 C-9.24201309 0.60605452 -5.35875264 -0.10523044 0 0 Z " fill="#090909" transform="translate(187.9375,196.625)"/>
<path d="M0 0 C3.81978202 1.77347022 5.48336877 3.25949523 7.875 6.6875 C9.79142867 12.33031776 10.02668812 16.90713575 7.375 22.3125 C4.26023336 25.83710435 1.61173611 28.54048449 -3.17578125 29.3828125 C-9.58460905 29.70594667 -12.9930959 27.59215871 -17.8125 23.4375 C-20.65611345 19.99523109 -20.33061314 15.7407021 -20.28125 11.5078125 C-19.75368694 6.80370857 -17.32048406 4.20044005 -13.9375 1.125 C-9.30938797 -0.64746844 -4.88680632 -0.63865751 0 0 Z M-13 9 C-14.56935594 12.13871188 -14.35201103 14.53855822 -14 18 C-11.57855492 21.34729173 -10.12569154 22.76049116 -6.0625 23.625 C-1.80918173 22.75697586 0.11949992 21.22341676 3 18 C3.91666667 14.5 3.91666667 14.5 3 11 C0.7454289 8.03684941 -1.02818413 6.42361205 -4.4375 4.9375 C-8.18319931 5.02885852 -10.12401618 6.7122856 -13 9 Z " fill="#6B6B6B" transform="translate(72,325)"/>
<path d="M0 0 C3.11761618 -0.1450054 5.47757045 -0.21469415 8.3894043 0.98193359 C11.11367263 2.04432945 13.17372776 2.30700838 16.08203125 2.4140625 C17.01337891 2.45273438 17.94472656 2.49140625 18.90429688 2.53125 C19.86400391 2.5621875 20.82371094 2.593125 21.8125 2.625 C22.79154297 2.66367188 23.77058594 2.70234375 24.77929688 2.7421875 C27.18601374 2.83610816 29.59273012 2.92178201 32 3 C31.2109375 7.7890625 31.2109375 7.7890625 29.3125 9.6875 C23.48583382 12.99452675 17.61537693 14.01931848 11 13 C6.76800352 11.14448721 3.02079884 8.51511138 0 5 C-0.1875 2.3125 -0.1875 2.3125 0 0 Z " fill="#F6F6F6" transform="translate(177,232)"/>
<path d="M0 0 C2 2 2 2 2 5 C-0.97 4.505 -0.97 4.505 -4 4 C-4.33 5.65 -4.66 7.3 -5 9 C-4.01 9.33 -3.02 9.66 -2 10 C-1.67 9.34 -1.34 8.68 -1 8 C-0.01 8.33 0.98 8.66 2 9 C1.125 12.875 1.125 12.875 0 14 C-2.99894961 14.26077823 -5.18003295 14.43731576 -7.875 13 C-9.68523932 9.78179676 -9.53967465 6.59783102 -9 3 C-6.88804118 -0.75459346 -4.01124771 -0.42672848 0 0 Z " fill="#6C6C6C" transform="translate(70,332)"/>
</svg>
